Both dumped by their girlfriends, two best friends seek refuge in the local mall.

General
Complete name : M:MallratsMallRats.mp4
Format : MPEG-4
Format profile : Base Media / Version 2
Codec ID : mp42
File size : 656 MiB
Duration : 1h 35mn
Overall bit rate mode : Variable
Overall bit rate : 965 Kbps
Encoded date : UTC 2013-03-19 20:22:07
Tagged date : UTC 2013-03-19 20:43:04
Writing application : HandBrake 0.9.8 2012071700

Video
ID : 1
Format : AVC
Format/Info : Advanced Video Codec
Format profile : Main@L3.1
Format settings, CABAC : Yes
Format settings, ReFrames : 4 frames
Codec ID : avc1
Codec ID/Info : Advanced Video Coding
Duration : 1h 35mn
Bit rate mode : Variable
Bit rate : 800 Kbps
Width : 1 280 pixels
Height : 692 pixels
Display aspect ratio : 1.85:1
Frame rate mode : Variable
Frame rate : 23.976 fps
Minimum frame rate : 23.974 fps
Maximum frame rate : 23.981 fps
Color space : YUV
Chroma subsampling : 4:2:0
Bit depth : 8 bits
Scan type : Progressive
Bits/(Pixel*Frame) : 0.038
Stream size : 544 MiB (83%)
Writing library : x264 core 120
Encoding settings : cabac=1 / ref=1 / deblock=1:0:0 / analyse=0x1:0x111 / me=hex / subme=2 / psy=1 / psy_rd=1.00:0.00 / mixed_ref=0 / me_range=16 / chroma_me=1 / trellis=0 / 8x8dct=0 / cqm=0 / deadzone=21,11 / fast_pskip=1 / chroma_qp_offset=0 / threads=9 / sliced_threads=0 / nr=0 / decimate=1 / interlaced=0 / bluray_compat=0 / constrained_intra=0 / bframes=3 / b_pyramid=2 / b_adapt=1 / b_bias=0 / direct=1 / weightb=1 / open_gop=0 / weightp=1 / keyint=240 / keyint_min=24 / scenecut=40 / intra_refresh=0 / rc_lookahead=10 / rc=2pass / mbtree=1 / bitrate=800 / ratetol=1.0 / qcomp=0.60 / qpmin=3 / qpmax=69 / qpstep=4 / cplxblur=20.0 / qblur=0.5 / ip_ratio=1.40 / aq=1:1.00
Encoded date : UTC 2013-03-19 20:22:07
Tagged date : UTC 2013-03-19 20:43:04
Color primaries : BT.709
Transfer characteristics : BT.709
Matrix coefficients : BT.709

Audio
ID : 2
Format : AAC
Format/Info : Advanced Audio Codec
Format profile : LC
Codec ID : 40
Duration : 1h 35mn
Bit rate mode : Variable
Bit rate : 160 Kbps
Maximum bit rate : 341 Kbps
Channel(s) : 2 channels
Channel positions : Front: L R
Sampling rate : 48.0 KHz
Compression mode : Lossy
Delay relative to video : 83ms
Stream size : 109 MiB (17%)
Language : English
Encoded date : UTC 2013-03-19 20:22:07
Tagged date : UTC 2013-03-19 20:43:03

Text
ID : 3
Format : Apple text
Codec ID : text
Duration : 1h 35mn
Bit rate mode : Variable
Bit rate : 1 bps
Stream size : 423 Bytes (0%)
Encoded date : UTC 2013-03-19 20:22:07
Tagged date : UTC 2013-03-19 20:43:04

Enjoy,

Encoded by PcTechPaul